<?xml version="1.0" encoding="utf-8"?>
<!-- Generator: Adobe Illustrator 19.2.0, SVG Export Plug-In . SVG Version: 6.00 Build 0)  -->
<svg version="1.1" id="Camada_1" xmlns="http://www.w3.org/2000/svg" xmlns:xlink="http://www.w3.org/1999/xlink" x="0px" y="0px"
	 viewBox="0 0 658.5 82.7" style="enable-background:new 0 0 658.5 82.7;" xml:space="preserve">
<style type="text/css">
	.st0{fill:#990000;}
	.st1{fill:#C41010;}
	.st2{fill:#112D44;}
</style>
<g>
	<g>
		<path class="st0" d="M33.9,79.2L33.9,79.2c-3.2,0.5-6.2-1.7-6.7-4.9L17.3,8.7C16.8,5.5,19,2.5,22.2,2l0,0c3.2-0.5,6.2,1.7,6.7,4.9
			l9.9,65.6C39.3,75.8,37.1,78.7,33.9,79.2z"/>
		<path class="st1" d="M12.3,79.2L12.3,79.2c3.2,0.5,6.2-1.7,6.7-4.9l9.9-65.6c0.5-3.2-1.7-6.2-4.9-6.7l0,0
			c-3.2-0.5-6.2,1.7-6.7,4.9L7.4,72.6C6.9,75.8,9.1,78.7,12.3,79.2z"/>
		<path class="st1" d="M28.9,7l1.3,8.6c0,0-0.2-0.6-1-0.4c-1.4,0.4-1.7,3-1.7,3L28.9,7z"/>
		<path class="st1" d="M27.2,74.3l-1.3-8.6c0,0,0.2,0.6,1,0.4c1.4-0.4,1.7-3,1.7-3L27.2,74.3z"/>
		<g>
			<path class="st0" d="M53.8,79.2L53.8,79.2c-3.2,0.5-6.2-1.7-6.7-4.9L37.2,8.7c-0.5-3.2,1.7-6.2,4.9-6.7l0,0
				c3.2-0.5,6.2,1.7,6.7,4.9l9.9,65.6C59.1,75.8,56.9,78.7,53.8,79.2z"/>
			<path class="st1" d="M32.1,79.2L32.1,79.2c3.2,0.5,6.2-1.7,6.7-4.9l9.9-65.6C49.2,5.5,47,2.5,43.8,2l0,0
				c-3.2-0.5-6.2,1.7-6.7,4.9l-9.9,65.6C26.7,75.8,28.9,78.7,32.1,79.2z"/>
		</g>
		<path class="st1" d="M48.7,7l1.3,8.6c0,0-0.2-0.6-1-0.4c-1.4,0.4-1.7,3-1.7,3L48.7,7z"/>
		<path class="st1" d="M47.1,74.3l-1.3-8.6c0,0,0.2,0.6,1,0.4c1.4-0.4,1.7-3,1.7-3L47.1,74.3z"/>
		<path class="st0" d="M73.7,79.2L73.7,79.2c-3.2,0.5-6.2-1.7-6.7-4.9L57.1,8.7C56.6,5.5,58.8,2.5,62,2l0,0c3.2-0.5,6.2,1.7,6.7,4.9
			l9.9,65.6C79.1,75.8,76.9,78.7,73.7,79.2z"/>
		<path class="st1" d="M52.1,79.2L52.1,79.2c3.2,0.5,6.2-1.7,6.7-4.9l9.9-65.6c0.5-3.2-1.7-6.2-4.9-6.7l0,0
			c-3.2-0.5-6.2,1.7-6.7,4.9l-9.9,65.6C46.7,75.8,48.9,78.7,52.1,79.2z"/>
		<path class="st1" d="M68.7,7l1.3,8.6c0,0-0.2-0.6-1-0.4c-1.4,0.4-1.7,3-1.7,3L68.7,7z"/>
		<path class="st1" d="M67,74.3l-1.3-8.6c0,0,0.2,0.6,1,0.4c1.4-0.4,1.7-3,1.7-3L67,74.3z"/>
		<path class="st1" d="M72,79.2L72,79.2c3.2,0.5,6.2-1.7,6.7-4.9l7.1-46.7c0.5-3.2-1.7-6.2-4.9-6.7l0,0c-3.2-0.5-6.2,1.7-6.7,4.9
			l-7.1,46.7C66.6,75.7,68.8,78.7,72,79.2z"/>
	</g>
	<g>
		<path class="st2" d="M117.5,44.1l-6.6,5.8l-4,28.1H92.1l10.4-74.3h14.9l-3.4,24l25.1-24h20.1l-30.1,29.1l20.3,45.2h-17.7
			L117.5,44.1z"/>
		<path class="st2" d="M157.5,78.1l10.4-74.3h14.9l-10.4,74.3H157.5z"/>
		<path class="st2" d="M208.9,44.1l-6.6,5.8l-4,28.1h-14.9l10.4-74.3h14.9l-3.4,24l25.1-24h20.1l-30.1,29.1l20.3,45.2h-17.7
			L208.9,44.1z"/>
		<path class="st2" d="M322.6,40.9c-3,21.2-22.7,38.6-44,38.6c-21.2,0-36.1-17.3-33.1-38.6c3-21.2,22.7-38.6,44-38.6
			C310.7,2.4,325.6,19.7,322.6,40.9z M260.8,40.9c-1.8,12.8,7.1,23.3,20,23.3c12.9,0,24.7-10.4,26.5-23.3c1.8-12.9-7.1-23.3-20-23.3
			C274.5,17.7,262.6,28.1,260.8,40.9z"/>
		<path class="st2" d="M452.6,50.7c-2.2,15.9-17,28.8-32.8,28.8c-15.9,0-27-12.8-24.9-28.7l6.6-47h14.9l-6.6,46.9
			c-0.5,3.7,0.5,7.2,2.8,9.9c2.3,2.7,5.6,4,9.3,4c3.7,0,7.3-1.4,10.3-4c3-2.7,4.9-6.1,5.5-9.8h-0.1l6.6-47h14.9l-6.6,46.9H452.6z"/>
		<path class="st2" d="M522.3,3.7l-2.1,14.9h-20.6l-8.4,59.6h-14.9l8.4-59.6H464l2.1-14.9H522.3z"/>
		<path class="st2" d="M595.3,40.9c-3,21.2-22.7,38.6-44,38.6c-21.2,0-36.1-17.3-33.1-38.6c3-21.2,22.7-38.6,44-38.6
			S598.3,19.7,595.3,40.9z M533.5,40.9c-1.8,12.8,7.1,23.3,20,23.3c12.9,0,24.7-10.4,26.5-23.3c1.8-12.9-7.1-23.3-20-23.3
			C547.1,17.7,535.3,28.1,533.5,40.9z"/>
		<path class="st2" d="M622.9,46.7c-2.4-0.6-6.8-1.8-10.6-4.7c-5.4-3.9-7.9-9.7-7.2-16.8c0.5-5.9,3.2-11.2,7.6-15.2
			c6.3-5.7,14.5-7.3,18.3-7.3c10.8,0,16.3,3.9,21.3,7.4l2.2,1.6L645,24.3l-2.4-1.7c-4.3-3.1-7.1-5.1-13.6-5.1c-1,0-4.8,0.7-7,2.8
			c-0.7,0.6-1.6,1.8-1.9,4.2c-0.4,3.8,1.9,5.9,8.5,7.6c0.8,0.2,1.4,0.4,2,0.6c6.8,2.4,11.8,5.7,15.1,9.9c3.2,4.2,4.5,9.2,3.8,14.5
			c-0.7,5.2-3.7,10.6-8,14.8c-5,4.9-11.5,7.6-18.2,7.6c-3.3,0-7.7-0.2-12.8-1.8c-6.4-2.1-11.8-5.8-16.2-11.3l12.3-10.2
			c6.7,8.4,15.5,8.4,18.8,8.4c6.2,0,9-5.6,9.2-7.5c0.6-4-3.5-7.8-10.9-10.4l-0.3-0.1L622.9,46.7z"/>
		<polygon class="st2" points="367.5,3.3 363.1,3.3 314.7,77.3 331.4,77.3 335.2,71.9 358.3,71.9 366.1,57.5 344.8,57.6 360.8,32.9 
			368.9,57.5 373.8,71.7 375.7,77.3 392.2,77.3 		"/>
	</g>
</g>
</svg>
