<?xml version="1.0" encoding="utf-8"?>
<!-- Generator: Adobe Illustrator 19.2.0, SVG Export Plug-In . SVG Version: 6.00 Build 0)  -->
<svg version="1.1" id="Layer_1" xmlns="http://www.w3.org/2000/svg" xmlns:xlink="http://www.w3.org/1999/xlink" x="0px" y="0px"
	 viewBox="0 0 595.3 118" style="enable-background:new 0 0 595.3 118;" xml:space="preserve">
<style type="text/css">
	.st0{font-family:'Gilroy-Light';}
	.st1{font-size:13.3791px;}
	.st2{letter-spacing:7;}
	.st3{fill:#990000;}
	.st4{fill:#C41010;}
	.st5{fill:#112D44;}
</style>
<g>
	<path d="M66.2,106.5h-0.7v-8.3l-3.5,5.8h-0.1l-3.5-5.8v8.3h-0.7v-9.4h0.9l3.3,5.5l3.3-5.5h0.9V106.5z"/>
	<path d="M75.9,103.3v-6.2h0.7v6.2c0,1.5,1,2.6,2.7,2.6c1.8,0,2.7-1.1,2.7-2.6v-6.2h0.7v6.2c0,2-1.4,3.3-3.4,3.3
		C77.3,106.6,75.9,105.3,75.9,103.3z"/>
	<path d="M97.6,105.8v0.7h-5.1v-9.4h0.7v8.7H97.6z"/>
	<path d="M111.4,97.8h-2.9v8.7h-0.7v-8.7h-2.9v-0.7h6.6V97.8z"/>
	<path d="M121,97.1v9.4h-0.7v-9.4H121z"/>
	<path d="M139.3,106.5h-0.7v-8.3l-3.5,5.8H135l-3.5-5.8v8.3h-0.7v-9.4h0.9l3.3,5.5l3.3-5.5h0.9V106.5z"/>
	<path d="M154.5,104.1h-4.7l-0.9,2.4h-0.7l3.6-9.4h0.7l3.6,9.4h-0.7L154.5,104.1z M154.3,103.4l-2.1-5.4l-2.1,5.4H154.3z"/>
	<path d="M168.7,102.6h-3v3.8h-0.7v-9.4h3.7c1.5,0,2.8,1.2,2.8,2.8c0,1.3-0.9,2.3-2.1,2.7l2.3,3.9H171L168.7,102.6z M165.8,102h3
		c1.1,0,2.1-0.9,2.1-2.1c0-1.2-0.9-2.1-2.1-2.1h-3V102z"/>
	<path d="M180.2,101.8c0-2.7,2-4.8,4.9-4.8c1.7,0,3.2,0.9,4,2.2l-0.6,0.4c-0.6-1.2-1.9-1.9-3.4-1.9c-2.5,0-4.2,1.8-4.2,4.1
		s1.7,4.1,4.2,4.1c1.5,0,2.8-0.8,3.4-2l0.6,0.4c-0.8,1.4-2.3,2.3-4,2.3C182.2,106.6,180.2,104.5,180.2,101.8z"/>
	<path d="M203.6,104.1h-4.7l-0.9,2.4h-0.7l3.6-9.4h0.7l3.6,9.4h-0.7L203.6,104.1z M203.3,103.4l-2.1-5.4l-2.1,5.4H203.3z"/>
	<path d="M213.2,104.4l0.6-0.4c0.3,1.1,1.3,1.9,2.8,1.9c1.6,0,2.4-0.8,2.4-1.9c0-1.1-1-1.6-2.4-2c-1.6-0.5-3-1-3-2.6
		c0-1.5,1.2-2.5,2.8-2.5c1.5,0,2.6,0.9,3,2l-0.6,0.3c-0.3-0.8-1.1-1.6-2.4-1.6c-1.3,0-2.1,0.8-2.1,1.8c0,1.1,1,1.5,2.3,1.9
		c1.7,0.5,3.1,1.1,3.1,2.7c0,1.6-1.2,2.6-3.1,2.6C214.9,106.6,213.7,105.7,213.2,104.4z"/>
	<path d="M270.6,106.5h-0.7v-8.3l-3.5,5.8h-0.1l-3.5-5.8v8.3h-0.7v-9.4h0.9l3.3,5.5l3.3-5.5h0.9V106.5z"/>
	<path d="M280.3,103.3v-6.2h0.7v6.2c0,1.5,1,2.6,2.7,2.6c1.8,0,2.7-1.1,2.7-2.6v-6.2h0.7v6.2c0,2-1.4,3.3-3.4,3.3
		C281.7,106.6,280.3,105.3,280.3,103.3z"/>
	<path d="M302,105.8v0.7h-5.1v-9.4h0.7v8.7H302z"/>
	<path d="M315.8,97.8h-2.9v8.7h-0.7v-8.7h-2.9v-0.7h6.6V97.8z"/>
	<path d="M325.4,97.1v9.4h-0.7v-9.4H325.4z"/>
	<path d="M341.4,100c0,1.6-1.2,2.9-2.9,2.9H336v3.6h-0.7v-9.4h3.2C340.1,97.1,341.4,98.3,341.4,100z M340.7,100
		c0-1.3-0.9-2.2-2.2-2.2H336v4.5h2.5C339.7,102.2,340.7,101.3,340.7,100z"/>
	<path d="M350,101.8c0-2.7,2.1-4.8,4.8-4.8s4.8,2.2,4.8,4.8s-2.1,4.8-4.8,4.8S350,104.5,350,101.8z M359,101.8
		c0-2.3-1.8-4.1-4.1-4.1s-4.1,1.8-4.1,4.1s1.8,4.1,4.1,4.1S359,104.1,359,101.8z"/>
	<path d="M368.1,104.4l0.6-0.4c0.3,1.1,1.3,1.9,2.8,1.9c1.6,0,2.4-0.8,2.4-1.9c0-1.1-1-1.6-2.4-2c-1.6-0.5-3-1-3-2.6
		c0-1.5,1.2-2.5,2.8-2.5c1.5,0,2.6,0.9,3,2l-0.6,0.3c-0.3-0.8-1.1-1.6-2.4-1.6c-1.3,0-2.1,0.8-2.1,1.8c0,1.1,1,1.5,2.3,1.9
		c1.7,0.5,3.1,1.1,3.1,2.7c0,1.6-1.2,2.6-3.1,2.6C369.7,106.6,368.5,105.7,368.1,104.4z"/>
	<path d="M382.9,104.4l0.6-0.4c0.3,1.1,1.3,1.9,2.8,1.9c1.6,0,2.4-0.8,2.4-1.9c0-1.1-1-1.6-2.4-2c-1.6-0.5-3-1-3-2.6
		c0-1.5,1.2-2.5,2.8-2.5c1.5,0,2.6,0.9,3,2l-0.6,0.3c-0.3-0.8-1.1-1.6-2.4-1.6c-1.3,0-2.1,0.8-2.1,1.8c0,1.1,1,1.5,2.3,1.9
		c1.7,0.5,3.1,1.1,3.1,2.7c0,1.6-1.2,2.6-3.1,2.6C384.6,106.6,383.3,105.7,382.9,104.4z"/>
	<path d="M399.3,97.1v9.4h-0.7v-9.4H399.3z"/>
	<path d="M415.7,103.9c0,1.4-1.1,2.6-2.6,2.6h-4v-9.4h3.7c1.4,0,2.5,1.1,2.5,2.5c0,0.9-0.5,1.7-1.2,2
		C415,102,415.7,102.8,415.7,103.9z M409.8,97.8v3.6h3c1,0,1.8-0.8,1.8-1.8s-0.8-1.8-1.8-1.8H409.8z M415,103.9c0-1-0.8-1.9-1.8-1.9
		h-3.3v3.8h3.3C414.1,105.8,415,104.9,415,103.9z"/>
	<path d="M425.6,97.1v9.4h-0.7v-9.4H425.6z"/>
	<path d="M440.6,105.8v0.7h-5.1v-9.4h0.7v8.7H440.6z"/>
	<path d="M450.2,97.1v9.4h-0.7v-9.4H450.2z"/>
	<path d="M468,101.8c0,2.6-1.8,4.7-4.4,4.7h-3.5v-9.4h3.5C466.2,97.1,468,99.2,468,101.8z M467.3,101.8c0-2.2-1.5-4-3.7-4h-2.8v8
		h2.8C465.8,105.8,467.3,104,467.3,101.8z"/>
	<path d="M482.3,104.1h-4.7l-0.9,2.4H476l3.6-9.4h0.7l3.6,9.4h-0.8L482.3,104.1z M482.1,103.4L480,98l-2.1,5.4H482.1z"/>
	<path d="M500.8,101.8c0,2.6-1.8,4.7-4.4,4.7h-3.5v-9.4h3.5C499,97.1,500.8,99.2,500.8,101.8z M500.1,101.8c0-2.2-1.5-4-3.7-4h-2.8
		v8h2.8C498.6,105.8,500.1,104,500.1,101.8z"/>
	<path d="M515.5,105.8v0.7h-5.4v-9.4h5.3v0.7h-4.6v3.6h4.3v0.7h-4.3v3.7H515.5z"/>
	<path d="M524.1,104.4l0.6-0.4c0.3,1.1,1.3,1.9,2.8,1.9c1.6,0,2.4-0.8,2.4-1.9c0-1.1-1-1.6-2.4-2c-1.6-0.5-3-1-3-2.6
		c0-1.5,1.2-2.5,2.8-2.5c1.5,0,2.6,0.9,3,2l-0.6,0.3c-0.3-0.8-1.1-1.6-2.4-1.6c-1.3,0-2.1,0.8-2.1,1.8c0,1.1,1,1.5,2.3,1.9
		c1.7,0.5,3.1,1.1,3.1,2.7c0,1.6-1.2,2.6-3.1,2.6C525.8,106.6,524.6,105.7,524.1,104.4z"/>
</g>
<text transform="matrix(1 0 0 1 237.8934 102.722)" class="st0 st1 st2">.</text>
<g>
	<path class="st3" d="M46.3,73.3L46.3,73.3c-2.7,0.4-5.2-1.4-5.6-4.1l-8.4-55.5c-0.4-2.7,1.4-5.2,4.1-5.6l0,0
		c2.7-0.4,5.2,1.4,5.6,4.1l8.4,55.5C50.8,70.3,49,72.8,46.3,73.3z"/>
	<path class="st4" d="M28,73.3L28,73.3c2.7,0.4,5.2-1.4,5.6-4.1L42,13.6c0.4-2.7-1.4-5.2-4.1-5.6l0,0c-2.7-0.4-5.2,1.4-5.6,4.1
		l-8.4,55.5C23.4,70.3,25.3,72.8,28,73.3z"/>
	<path class="st4" d="M42.4,12.1l1.1,7.3c0,0-0.2-0.5-0.8-0.3c-1.2,0.4-1.5,2.5-1.5,2.5L42.4,12.1z"/>
	<path class="st4" d="M41,69.1l-1.1-7.3c0,0,0.2,0.5,0.8,0.3c1.2-0.4,1.5-2.5,1.5-2.5L41,69.1z"/>
	<g>
		<path class="st3" d="M63.1,73.3L63.1,73.3c-2.7,0.4-5.2-1.4-5.6-4.1l-8.4-55.5c-0.4-2.7,1.4-5.2,4.1-5.6l0,0
			c2.7-0.4,5.2,1.4,5.6,4.1l8.4,55.5C67.7,70.3,65.8,72.8,63.1,73.3z"/>
		<path class="st4" d="M44.8,73.3L44.8,73.3c2.7,0.4,5.2-1.4,5.6-4.1l8.4-55.5c0.4-2.7-1.4-5.2-4.1-5.6l0,0
			c-2.7-0.4-5.2,1.4-5.6,4.1l-8.4,55.5C40.2,70.3,42.1,72.8,44.8,73.3z"/>
	</g>
	<path class="st4" d="M59.2,12.1l1.1,7.3c0,0-0.2-0.5-0.8-0.3c-1.2,0.4-1.5,2.5-1.5,2.5L59.2,12.1z"/>
	<path class="st4" d="M57.8,69.1l-1.1-7.3c0,0,0.2,0.5,0.8,0.3c1.2-0.4,1.5-2.5,1.5-2.5L57.8,69.1z"/>
	<path class="st3" d="M80,73.3L80,73.3c-2.7,0.4-5.2-1.4-5.6-4.1l-8.4-55.5c-0.4-2.7,1.4-5.2,4.1-5.6l0,0c2.7-0.4,5.2,1.4,5.6,4.1
		l8.4,55.5C84.5,70.3,82.7,72.8,80,73.3z"/>
	<path class="st4" d="M61.7,73.3L61.7,73.3c2.7,0.4,5.2-1.4,5.6-4.1l8.4-55.5c0.4-2.7-1.4-5.2-4.1-5.6l0,0c-2.7-0.4-5.2,1.4-5.6,4.1
		l-8.4,55.5C57.1,70.3,59,72.8,61.7,73.3z"/>
	<path class="st4" d="M76.1,12.1l1.1,7.3c0,0-0.2-0.5-0.8-0.3c-1.2,0.4-1.5,2.5-1.5,2.5L76.1,12.1z"/>
	<path class="st4" d="M74.7,69.1l-1.1-7.3c0,0,0.2,0.5,0.8,0.3c1.2-0.4,1.5-2.5,1.5-2.5L74.7,69.1z"/>
	<path class="st4" d="M78.5,73.2L78.5,73.2c2.7,0.4,5.2-1.4,5.6-4.1l6-39.6c0.4-2.7-1.4-5.2-4.1-5.6l0,0c-2.7-0.4-5.2,1.4-5.6,4.1
		l-6,39.6C73.9,70.3,75.8,72.8,78.5,73.2z"/>
</g>
<g>
	<path class="st5" d="M117.1,43.5l-5.5,4.9l-3.3,23.8H95.6l8.8-62.9H117l-2.9,20.3l21.3-20.3h17L127,34l17.2,38.3h-15L117.1,43.5z"
		/>
	<path class="st5" d="M150.9,72.3l8.8-62.9h12.6l-8.8,62.9H150.9z"/>
	<path class="st5" d="M194.4,43.5l-5.5,4.9l-3.3,23.8h-12.6l8.8-62.9h12.6l-2.9,20.3l21.3-20.3h17L204.3,34l17.2,38.3h-15
		L194.4,43.5z"/>
	<path class="st5" d="M290.7,40.8c-2.5,18-19.2,32.6-37.2,32.6c-18,0-30.6-14.7-28-32.6c2.5-18,19.2-32.6,37.2-32.6
		S293.2,22.9,290.7,40.8z M238.3,40.8c-1.5,10.9,6,19.7,16.9,19.7c10.9,0,20.9-8.8,22.5-19.7c1.5-10.9-6-19.7-16.9-19.7
		C249.9,21.2,239.9,30,238.3,40.8z"/>
	<path class="st5" d="M400.7,49.1c-1.9,13.5-14.4,24.4-27.8,24.4c-13.5,0-22.8-10.9-21-24.3l5.6-39.8H370l-5.6,39.7
		c-0.4,3.1,0.4,6.1,2.3,8.4c1.9,2.2,4.7,3.4,7.9,3.4c3.1,0,6.2-1.2,8.8-3.4c2.6-2.2,4.1-5.1,4.7-8.3H388l5.6-39.8h12.6L400.7,49.1
		L400.7,49.1z"/>
	<path class="st5" d="M459.7,9.4L457.9,22h-17.4l-7.1,50.4h-12.6l7.1-50.4h-17.5l1.8-12.6H459.7z"/>
	<path class="st5" d="M521.4,40.8c-2.5,18-19.2,32.6-37.2,32.6c-18,0-30.6-14.7-28-32.6c2.5-18,19.2-32.6,37.2-32.6
		C511.3,8.2,523.9,22.9,521.4,40.8z M469.1,40.8c-1.5,10.9,6,19.7,16.9,19.7c10.9,0,20.9-8.8,22.5-19.7c1.5-10.9-6-19.7-16.9-19.7
		C480.7,21.2,470.6,30,469.1,40.8z"/>
	<path class="st5" d="M544.8,45.7c-2-0.5-5.7-1.5-9-4c-4.6-3.3-6.7-8.2-6.1-14.2c0.4-5,2.7-9.4,6.4-12.9c5.4-4.9,12.3-6.2,15.5-6.2
		c9.2,0,13.8,3.3,18,6.3l1.9,1.3l-8.1,10.7l-2-1.4c-3.7-2.6-6-4.3-11.5-4.3c-0.8,0-4,0.6-5.9,2.3c-0.6,0.5-1.4,1.5-1.6,3.6
		c-0.4,3.2,1.6,5,7.2,6.5c0.7,0.2,1.2,0.4,1.7,0.5c5.7,2.1,10,4.9,12.8,8.4c2.7,3.6,3.8,7.8,3.2,12.3c-0.6,4.4-3.2,9-6.8,12.5
		c-4.3,4.1-9.7,6.5-15.4,6.5c-2.8,0-6.5-0.2-10.8-1.5c-5.4-1.8-10-4.9-13.7-9.5L531,54c5.7,7.1,13.1,7.1,15.9,7.1
		c5.2,0,7.6-4.8,7.8-6.4c0.5-3.4-2.9-6.6-9.2-8.8l-0.3-0.1L544.8,45.7z"/>
	<polygon class="st5" points="329,9 325.3,9 284.3,72 298.4,72 301.7,67.2 321.2,67.1 327.8,54.9 309.8,54.9 323.3,34.1 330.2,54.9 
		334.3,67.1 335.9,72 349.9,72 	"/>
</g>
</svg>
